Coordinates
version=1
nRows=9
nColumns=36
inDegrees=yes

Units are S.I. units (second, meters, Newtons, ...)
If the header above contains a line with 'inDegrees', this indicates whether rotational values are in degrees (yes) or radians (no).

endheader
time	pelvis_tilt	pelvis_list	pelvis_rotation	pelvis_tx	pelvis_ty	pelvis_tz	hip_flexion_r	hip_adduction_r	hip_rotation_r	knee_angle_r	knee_angle_r_beta	ankle_angle_r	subtalar_angle_r	mtp_angle_r	hip_flexion_l	hip_adduction_l	hip_rotation_l	knee_angle_l	knee_angle_l_beta	ankle_angle_l	subtalar_angle_l	mtp_angle_l	lumbar_extension	lumbar_bending	lumbar_rotation	arm_flex_r	arm_add_r	arm_rot_r	elbow_flex_r	pro_sup_r	arm_flex_l	arm_add_l	arm_rot_l	elbow_flex_l	pro_sup_l
      4.11666670	     -0.40566578	     -3.42479375	     -2.71027528	      0.82207787	      0.97002804	     -0.57598622	     33.34489352	     -2.11567850	     -2.07733594	     22.94785830	      0.40051568	     -5.10552419	     -0.51359447	     -7.49999987	      5.83032103	      2.81294383	      4.10051175	     13.61235594	      0.23758043	      9.51502150	     -3.91075749	     -7.49999987	     -7.21839091	      4.23705349	     -4.23931048	     49.32057069	     -4.22011372	     72.88922053	    126.00234489	     93.74598463	     53.40362839	    -10.98307142	     56.42221071	    125.63399973	     96.11726840
      4.13333330	     -0.37868702	     -3.35685479	     -2.66167563	      0.82242983	      0.96982257	     -0.57601588	     32.48801675	     -2.00177872	     -1.45601447	     22.57117835	      0.39394138	     -4.88547917	     -0.68876499	     -7.49999987	      5.76907986	      2.95242855	      4.40650578	     13.76264296	      0.24020343	     10.18334999	     -3.85120630	     -7.49999987	     -6.95125818	      4.00858544	     -4.31909717	     49.05631747	     -4.11763630	     72.64205268	    125.78134464	     93.74995595	     53.06961581	    -10.84126834	     56.59364522	    125.83515969	     96.16560721
      4.15000000	     -0.09206687	     -3.67932343	     -2.58835864	      0.83401937	      0.96753843	     -0.57539655	     30.91319629	     -1.44759031	     -0.70774836	     21.87538265	      0.38179745	     -5.22533534	     -2.33343105	     -7.49999987	      4.91328399	      2.59012046	      3.96983181	     13.67469945	      0.23866853	     11.46582951	     -2.80189359	     -7.49999987	     -6.33651950	      4.27976207	     -4.21098608	     47.51963972	     -3.96163037	     70.78804574	    125.03917193	     93.94147828	     51.64394953	    -10.89965854	     56.67657445	    126.57825812	     96.69112433
      4.16666670	     -0.01901297	     -3.77374637	     -2.75470966	      0.83394352	      0.97032046	     -0.57509629	     29.98028727	     -1.10939275	     -0.30525138	     21.66208861	      0.37807477	     -4.85096678	     -2.73062187	     -7.49999987	      4.58576763	      2.57856559	      4.11466200	     13.70813390	      0.23925207	     12.30525785	     -2.74766618	     -7.49999987	     -5.80498337	      4.32229739	     -3.74579666	     46.77183738	     -4.15983284	     70.72137323	    124.77500357	     93.94277840	     50.44451684	    -10.55581161	     57.23535846	    127.43884529	     96.77960764
      4.18333330	      0.00523403	     -4.13257189	     -3.02652332	      0.84564625	      0.97042289	     -0.57375938	     28.70651860	     -0.32014162	      0.24070214	     21.23661500	      0.37064885	     -4.90979224	     -4.14554525	     -7.49999987	      3.87237557	      2.15154194	      3.64219784	     13.42267988	      0.23426996	     13.29563149	     -1.69455480	     -7.49999987	     -4.89499800	      4.64655913	     -3.74617155	     44.89232632	     -3.89762850	     70.36150247	    125.02855843	     93.92585750	     48.72552350	    -10.56940762	     57.12465681	    128.49833175	     96.93234551
      4.20000000	      0.12340812	     -4.12384045	     -3.14573336	      0.84513561	      0.96668194	     -0.57357005	     27.64422823	     -0.02921575	      0.66375081	     20.95739288	      0.36577551	     -4.50309200	     -4.54229286	     -7.49999987	      3.48441331	      2.21856161	      3.35862954	     13.52212651	      0.23600563	     13.80031556	     -1.71554246	     -7.49999987	     -4.29339357	      4.39687083	     -3.90776780	     44.07007286	     -3.62798093	     70.63115442	    125.34261376	     94.08620411	     48.09486945	    -10.41699590	     57.14140519	    128.72160302	     97.12184136
      4.21666670	     -0.03448417	     -4.18388652	     -3.36238888	      0.84955901	      0.96724522	     -0.56917941	     26.88480402	      0.37987048	      0.98927498	     20.65404816	      0.36048114	     -4.29323426	     -5.15107924	     -7.49999987	      3.29516579	      2.11298623	      2.90788605	     13.51012434	      0.23579615	     14.47817314	     -1.58604235	     -7.49999987	     -3.28596938	      4.27890664	     -3.54217964	     42.70682992	     -3.59648510	     70.52048512	    125.41737445	     93.39850807	     46.56375105	    -10.69153567	     57.01478333	    128.82078322	     96.47107812
      4.23333330	      0.19987593	     -4.21271033	     -3.58656477	      0.84939085	      0.96399657	     -0.56849620	     25.92942493	      0.84728114	      1.83195791	     20.43503490	      0.35665864	     -4.18737908	     -6.32454303	     -7.49999987	      2.84159981	      1.95129451	      2.13024452	     13.67923857	      0.23874775	     15.46324249	     -0.63554074	     -7.49999987	     -3.00942299	      4.06955669	     -3.54900041	     42.15972860	     -2.94684679	     70.02690325	    125.14120065	     91.83759676	     46.04936197	    -11.08093437	     56.04369299	    129.15549631	     94.60673773
      4.25000000	      0.14875501	     -4.21802602	     -3.63653027	      0.85382618	      0.96467016	     -0.56410291	     24.95681203	      1.16853911	      2.06569096	     19.63116460	      0.34262846	     -3.85047527	     -6.65616325	     -7.49999987	      2.55640355	      1.78250103	      1.72082988	     13.66330834	      0.23846972	     16.24556928	     -0.09143527	     -7.49999987	     -2.25587568	      3.76121030	     -3.54578022	     41.32540823	     -2.29762913	     69.81230678	    125.01573635	     91.03905095	     45.31851573	    -11.27451869	     55.52841213	    129.24693464	     94.00745235
